<svg xmlns="http://www.w3.org/2000/svg" version="1.1" xmlns:xlink="http://www.w3.org/1999/xlink" width="32" height="32"><svg xmlns="http://www.w3.org/2000/svg" viewBox="0 0 32 32" style="fill-rule: evenodd;">
    <g transform="matrix(0.15658, 0, 0, 0.15658, -10.430316, 4.594939)" id="SvgjsG1508">
        <path d="M 108.533 118.118 C 105.359 98.673 115.965 84.414 122.338 66.905 C 125.929 57.081 128.246 44.503 116.799 38.856 C 115.904 38.43 114.576 38.304 114.289 37.235 C 113.736 35.159 117.01 35.259 118.251 35.193 C 119.044 35.143 119.682 35.143 119.901 35.163 C 125.667 35.711 130.487 39.352 133.589 44.092 C 135.195 46.531 136.232 49.737 136.775 52.612 C 137.066 54.111 136.625 57.938 138.183 58.842 C 139.497 59.603 140.996 57.208 141.611 56.522 C 147.839 49.363 154.43 43.434 162.345 38.119 C 178.854 27.051 203.461 13.381 198.263 -10.641 C 197.823 -12.684 197.137 -14.677 196.241 -16.556 C 195.796 -17.473 194.143 -20.26 196.213 -19.866 C 199.56 -19.206 203.793 -13.037 205.442 -10.398 C 215.225 5.072 212.98 24.718 206.948 41.112 C 205.138 46.066 202.962 50.813 200.574 55.495 C 198.257 60.011 195.263 64.225 193.773 69.127 C 193.061 71.517 192.384 75.424 194.931 76.992 C 200.251 80.298 203.822 71.42 205.887 68.093 C 209.308 62.615 215.131 60.059 221.455 59.719 C 222.321 59.681 231.598 59.508 229.267 62.006 C 228.637 62.69 227.158 62.672 226.389 62.844 C 210.714 66.103 208.96 85.404 210.644 97.534 C 211.785 105.848 212.063 113.472 209.339 125.159 L 209.342 125.055 C 204.511 148.198 183.995 165.581 159.415 165.581 C 132.437 165.581 110.35 144.636 108.533 118.118 Z M 182.805 137.137 C 181.892 138.635 179.93 139.11 178.432 138.19 C 166.457 130.876 151.382 129.219 133.628 133.275 C 131.917 133.665 130.212 132.593 129.822 130.882 C 129.431 129.17 130.498 127.465 132.213 127.075 C 151.642 122.635 168.307 124.548 181.752 132.764 C 183.25 133.683 183.725 135.638 182.805 137.137 Z M 189.048 123.247 C 187.897 125.12 185.448 125.711 183.579 124.56 C 169.869 116.131 148.971 113.691 132.755 118.613 C 130.652 119.248 128.431 118.063 127.792 115.964 C 127.159 113.861 128.345 111.644 130.444 111.004 C 148.967 105.384 171.995 108.106 187.738 117.781 C 189.608 118.932 190.199 121.381 189.048 123.248 L 189.048 123.247 Z M 189.584 108.786 C 173.146 99.022 146.025 98.125 130.33 102.888 C 127.81 103.652 125.145 102.23 124.381 99.709 C 123.617 97.188 125.039 94.525 127.561 93.758 C 145.577 88.289 175.527 89.346 194.453 100.581 C 196.724 101.926 197.467 104.854 196.121 107.118 C 194.781 109.385 191.846 110.132 189.586 108.786 L 189.584 108.786 Z" fill="#ea533a" style="--darkreader-inline-fill: var(--darkreader-text-ea533a, #eb5e47);" data-darkreader-inline-fill=""></path>
    </g>
</svg><style>@media (prefers-color-scheme: light) { :root { filter: contrast(1) brightness(1); } }
@media (prefers-color-scheme: dark) { :root { filter: none; } }
</style></svg>